<?xml version="1.0" encoding="UTF-8"?>
<svg width="75px" height="30px" viewBox="0 0 75 30" version="1.1" xmlns="http://www.w3.org/2000/svg" xmlns:xlink="http://www.w3.org/1999/xlink">
    <!-- Generator: sketchtool 42 (36781) - http://www.bohemiancoding.com/sketch -->
    <title>990AF30D-A743-43E8-B836-EEE0C4B3E5D8</title>
    <desc>Created with sketchtool.</desc>
    <defs>
        <polygon id="path-1" points="9.79862692 9.92323019 0.000270668509 9.92323019 0.000270668509 0.018046338 9.79862692 0.018046338 9.79862692 9.92323019"></polygon>
        <polygon id="path-3" points="9.8150771 0.0178609292 9.8150771 9.9230122 0.0192649531 9.9230122 0.0192649531 0.0178609292 9.8150771 0.0178609292"></polygon>
        <polygon id="path-5" points="9.79862692 9.92323019 0.000270668509 9.92323019 0.000270668509 0.018046338 9.79862692 0.018046338 9.79862692 9.92323019"></polygon>
        <polygon id="path-7" points="9.8150771 0.0178609292 9.8150771 9.9230122 0.0192649531 9.9230122 0.0192649531 0.0178609292 9.8150771 0.0178609292"></polygon>
    </defs>
    <g id="FFT_ToolBox_0215" stroke="none" stroke-width="1" fill="none" fill-rule="evenodd">
        <g id="toolBox_w1440px" transform="translate(-481.000000, -95.000000)">
            <g id="Group-2" transform="translate(0.000000, 60.000000)">
                <g id="Group" transform="translate(455.000000, 30.000000)">
                    <g id="Page-1" transform="translate(26.000000, 5.000000)">
                        <path d="M4.52839228,20.0081481 C3.49826764,20.0877231 2.50585586,20.5281506 1.72967416,21.2128955 C0.506596166,22.2719691 -0.115447513,23.9720791 0.10188503,25.5814084 C0.333632911,27.622209 1.96029876,29.3940522 3.95290203,29.7885216 C5.39329176,30.0967304 6.96341953,29.7134456 8.09222579,28.75413 C9.1788885,27.8474789 9.85751186,26.448829 9.85418364,25.0188117 C9.90629104,23.382593 9.07022223,21.7553304 7.7251859,20.847565 C6.79931765,20.1997799 5.64833716,19.9095255 4.52839228,20.0081481" id="Fill-1" fill="#FFFFFF"></path>
                        <g id="Group-5" transform="translate(16.225056, 19.970501)">
                            <mask id="mask-2" fill="white">
                                <use xlink:href="#path-1"></use>
                            </mask>
                            <g id="Clip-4"></g>
                            <path d="M4.37828347,0.0454933852 C2.36350596,0.225919575 0.574943173,1.81956512 0.136949872,3.81217917 C-0.256694944,5.41925891 0.214559722,7.21351349 1.362212,8.39809909 C2.42339306,9.53449816 4.04009506,10.0982091 5.56918177,9.87518872 C6.86431564,9.70371867 8.07851146,8.97974334 8.84693426,7.91059938 C9.49339873,7.02635968 9.83824357,5.92021385 9.79499755,4.81968137 C9.777254,3.31906611 9.00993367,1.85990977 7.81127647,0.980169165 C6.83881318,0.237125256 5.58469958,-0.0822682035 4.37828347,0.0454933852" id="Fill-3" fill="#FFFFFF" mask="url(#mask-2)"></path>
                        </g>
                        <path d="M36.7924961,20.013753 C35.7202488,20.1168537 34.6867959,20.594283 33.9139216,21.3529896 C32.7873411,22.4131775 32.222938,24.0415543 32.4369423,25.5802857 C32.6043724,26.9990974 33.4293749,28.3192864 34.6180474,29.0914483 C35.6027003,29.7425762 36.8268808,30.0160327 37.9911533,29.8400845 C39.307359,29.6607726 40.5370726,28.9031802 41.2955316,27.8003982 C42.0717133,26.7155705 42.362225,25.2967588 42.1038722,23.9855259 C41.8488476,22.6025808 40.9639788,21.3597172 39.7608701,20.6559248 C38.8737964,20.1213318 37.8159643,19.9173799 36.7924961,20.013753" id="Fill-6" fill="#FFFFFF"></path>
                        <path d="M52.9805443,20.0103913 C51.1498379,20.1628138 49.4854592,21.4695476 48.8644972,23.2122519 C48.3954683,24.503302 48.4764064,25.9971896 49.1084555,27.2187561 C49.8025967,28.6117926 51.1975146,29.615952 52.7255197,29.8344733 C54.2058272,30.0743127 55.7814881,29.569994 56.8559612,28.5142842 C57.7108761,27.6928216 58.2475718,26.5474664 58.3429252,25.359517 C58.4704375,23.9306139 57.9481779,22.4535242 56.9346944,21.446022 C55.9234158,20.3880627 54.4231597,19.866946 52.9805443,20.0103913" id="Fill-8" fill="#FFFFFF"></path>
                        <g id="Group-12" transform="translate(64.713011, 19.970501)">
                            <mask id="mask-4" fill="white">
                                <use xlink:href="#path-3"></use>
                            </mask>
                            <g id="Clip-11"></g>
                            <path d="M4.46334228,0.0376473057 C3.5707146,0.114972816 2.70693839,0.457912923 1.98619229,0.992484902 C0.76866826,1.89688642 0.00688108778,3.40536458 0.0201939541,4.93511881 C-0.000877817123,5.98746476 0.337331391,7.04092497 0.951616165,7.88929808 C1.74333648,8.9887163 2.99745009,9.73958106 4.33693246,9.88527594 C5.83165533,10.0791574 7.39624994,9.51656066 8.43523595,8.41377863 C9.48530908,7.33790706 9.9865177,5.75548823 9.76252872,4.26269382 C9.58288823,2.90104583 8.80005009,1.63802046 7.67344878,0.872565188 C6.74202657,0.222572587 5.58771785,-0.063224852 4.46334228,0.0376473057" id="Fill-10" fill="#FFFFFF" mask="url(#mask-4)"></path>
                        </g>
                        <path d="M52.8951505,5.69018412 C51.9279916,5.9482722 51.3693921,6.92415462 51.2161901,7.8661677 C51.0198877,9.01143881 51.131591,10.3292942 51.9168213,11.2406546 C52.7100185,12.1423441 54.2533125,12.1471796 55.0449288,11.2406546 C55.9211235,10.2147566 55.9482484,8.70335615 55.633836,7.45002275 C55.3290129,6.28217208 54.1144635,5.31274397 52.8951505,5.69018412 M56.6297216,0.094554508 C57.0925517,-0.0715965263 57.6958325,-0.0409438364 58.0325857,0.367149005 C58.3134871,0.704265522 58.3102837,1.17204491 58.3134871,1.58982972 C58.2975325,5.29983536 58.3198732,9.00981998 58.3023168,12.7198256 C58.3597701,13.6053688 57.3176015,14.1989756 56.5754716,13.7634467 C56.0360301,13.4811813 55.9370781,12.8278879 55.9482484,12.273007 C55.2412312,13.1101744 54.2724706,13.7989349 53.1552923,13.8747467 C51.9902293,14.0183181 50.7708955,13.5892435 49.9761174,12.7101337 C48.900417,11.5616459 48.5668673,9.90505512 48.6179346,8.36945627 C48.6626159,7.04836318 49.0360834,5.64986049 50.0351724,4.73204579 C51.0549796,3.74323375 52.6078631,3.5367801 53.9389209,3.8658445 C54.7416867,4.05455407 55.3768976,4.61429153 55.9546344,5.17400796 C55.957817,3.92391222 55.9466467,2.67541429 55.9562361,1.42529752 C55.9610205,0.917194496 56.1190067,0.307462458 56.6297216,0.094554508" id="Fill-13" fill="#FFFFFF"></path>
                        <path d="M3.78566955,9.59535784 C3.25900007,9.72923735 2.65093491,10.0324845 2.54399515,10.629308 C2.37641944,11.3632486 2.99087063,12.1004058 3.70267215,12.1875074 C4.5533435,12.311716 5.47101602,12.0084688 6.06312655,11.3745383 C6.64724936,10.6922322 6.5818083,9.73085618 6.64406675,8.89045109 C5.70721539,9.19048164 4.74005645,9.36468478 3.78566955,9.59535784 M1.71728695,4.40620223 C2.98768802,3.64968207 4.52940114,3.60773961 5.95778849,3.74647561 C6.90581018,3.84003149 7.95116141,4.12877226 8.50815925,4.97561063 C9.21199386,6.07570162 9.05078337,7.44355162 9.0651571,8.68883292 C9.09706638,9.67278847 8.96142075,10.6825402 9.23433451,11.6439162 C9.3540255,12.1488026 9.60617951,12.6649787 9.46733047,13.1924447 C9.20400614,13.6989289 8.60550959,14.0328288 8.04212573,13.8521713 C7.46438893,13.5989187 7.14200955,13.0150039 6.78449669,12.5230261 C5.92427751,13.1650086 4.9682889,13.7586154 3.87823557,13.855409 C2.78179622,14.0037949 1.55449556,13.8005579 0.756514029,12.9682259 C0.0111807276,12.1971994 -0.205860596,10.9728998 0.205902199,9.9857066 C0.574564589,9.12919728 1.40447619,8.5484991 2.29184114,8.35655187 C3.73139881,8.03232294 5.18533023,7.76778055 6.60416976,7.34999574 C6.56585366,6.78060836 6.50679862,6.10151883 6.01684354,5.73213079 C5.31939495,5.36112392 4.4703461,5.40628303 3.7266145,5.60308675 C3.0642786,5.78857968 2.66528784,6.39831172 2.31258009,6.94673837 C1.94071429,7.75810961 0.553825639,7.43711834 0.4548736,6.58542347 C0.362307577,5.67727972 0.970372745,4.84656659 1.71728695,4.40620223" id="Fill-15" fill="#FFFFFF"></path>
                        <path d="M20.4850545,5.701476 C19.4747951,5.97730816 18.9401587,7.03869434 18.8412067,8.02264989 C18.7294826,9.05498119 18.7981063,10.2389571 19.5131112,11.0551638 C20.1626751,11.8294281 21.3740211,11.9858871 22.22307,11.4664943 C23.0178689,11.006767 23.4455863,10.0744249 23.4950519,9.17435428 C23.5525261,8.22105142 23.4184614,7.19031794 22.8151805,6.41927034 C22.2773407,5.72729322 21.3117627,5.44984223 20.4850545,5.701476 M17.66177,4.76267956 C18.7278809,3.71743965 20.389285,3.49000426 21.7698085,3.94163738 C22.5247104,4.18521904 23.1168209,4.75462745 23.6115603,5.35950299 C23.6227515,4.93850154 23.579651,4.46267004 23.8701211,4.11745936 C24.2084552,3.6448445 24.8899491,3.63355472 25.3815059,3.82712078 C25.9289143,4.16747496 25.9193457,4.89496126 25.964027,5.46920514 C25.9800024,7.88874936 25.9720147,10.3067168 25.9688321,12.726261 C25.9432881,14.0134848 25.810825,15.4458568 24.8819614,16.4217392 C23.9706541,17.3411727 22.6172764,17.5508851 21.3851914,17.597663 C20.084462,17.6444409 18.713528,17.4428017 17.6107026,16.700809 C17.0505222,16.3152957 16.5302387,15.6878196 16.602045,14.9619522 C16.6563157,14.3151131 17.3872753,13.8989471 17.979365,14.0925132 C18.5539192,14.2409202 18.8108783,14.8361248 19.2146534,15.2168026 C19.8131499,15.8362055 20.7467979,15.8862212 21.5479828,15.7894276 C22.183173,15.721689 22.8806216,15.444238 23.1567179,14.815164 C23.526982,13.965088 23.4200423,13.0101663 23.4647444,12.106858 C22.8119771,12.9569341 21.8464199,13.6263526 20.7515822,13.6489322 C19.6407899,13.752159 18.4725235,13.4166613 17.6857123,12.5940003 C16.675453,11.5810109 16.3051889,10.092169 16.2764622,8.69366629 C16.2525198,7.28063615 16.6100327,5.76116255 17.66177,4.76267956" id="Fill-17" fill="#FFFFFF"></path>
                        <path d="M36.530969,5.71438041 C35.6116948,6.02086526 35.0898097,6.97416812 34.9525415,7.89522048 C34.7785798,9.01305554 34.8631789,10.2760599 35.5749804,11.1987311 C36.333065,12.1955742 37.9641615,12.2730048 38.8323684,11.3858428 C39.5010695,10.737385 39.708563,9.75988373 39.7117456,8.85497764 C39.7165299,7.97103228 39.5617263,7.01449175 38.9568437,6.33540222 C38.3775052,5.64340408 37.3640632,5.42404183 36.530969,5.71438041 M36.3665759,3.77228652 C37.6912477,3.60775432 39.1196351,3.76743003 40.2400168,4.55460288 C41.5247708,5.41758752 42.2014596,6.9919122 42.2222194,8.52107777 C42.29881,9.91312616 41.9125912,11.3713154 40.974159,12.4181741 C40.0421127,13.4440722 38.636066,13.9231413 37.2794849,13.8957263 C36.0010962,13.916687 34.6796486,13.4908501 33.7699222,12.5569101 C32.8267056,11.6439099 32.3798301,10.3115481 32.3606929,9.01143671 C32.3112064,7.60324204 32.6958443,6.10472917 33.7045019,5.08690429 C34.4051331,4.34974704 35.3754746,3.91745581 36.3665759,3.77228652" id="Fill-19" fill="#FFFFFF"></path>
                        <path d="M68.5687417,9.62439169 C68.0691972,9.7518169 67.5281748,10.0663749 67.421235,10.6180182 C67.255261,11.3277604 67.8042711,12.0407193 68.4889477,12.1713821 C69.393869,12.3423686 70.3929372,12.0036333 70.996218,11.2955099 C71.5212858,10.6260913 71.4686168,9.71473093 71.4813888,8.90819517 C70.5254002,9.20984455 69.5342989,9.36468478 68.5687417,9.62439169 M66.5881408,4.40941887 C67.9542905,3.59323319 69.625284,3.59968749 71.1542251,3.78679925 C72.228303,3.91260562 73.3774114,4.49008716 73.6902222,5.61759317 C74.226481,7.45324359 73.7604475,9.39857514 74.0173858,11.2696927 C74.114757,11.8439366 74.3972394,12.3907654 74.386069,12.9827534 C74.2663572,13.7182918 73.2832437,14.1570373 72.6719959,13.7247461 C72.2474611,13.4230967 71.9649787,12.9714426 71.6840772,12.5439868 C70.9547193,12.9924243 70.2540882,13.5263446 69.4082219,13.7327982 C68.1952742,14.0344476 66.7621025,13.9812153 65.7789681,13.1117974 C64.7384012,12.2181601 64.5612361,10.4728489 65.4246795,9.39857514 C65.8747376,8.82916673 66.5514264,8.48397708 67.2472733,8.33235349 C68.592684,8.03070411 69.9588337,7.80488755 71.2787004,7.39355704 C71.6314082,7.36290435 71.4239355,6.95964698 71.4207529,6.74833684 C71.3313695,6.27734081 71.122295,5.73534743 70.6131819,5.60308675 C69.8742554,5.37724917 69.0459455,5.40790186 68.3309406,5.7014781 C67.633492,6.00956076 67.3893257,6.79349595 66.8833952,7.30162 C66.3040567,7.5871231 65.4294638,7.29033022 65.3352961,6.59025894 C65.2315597,5.68373402 65.8396249,4.84494776 66.5881408,4.40941887" id="Fill-21" fill="#FFFFFF"></path>
                        <path d="M4.52839228,20.0081481 C5.64833716,19.9095255 6.79931765,20.1997799 7.7251859,20.847565 C9.07022223,21.7553304 9.90629104,23.382593 9.85418364,25.0188117 C9.85751186,26.448829 9.1788885,27.8474789 8.09222579,28.75413 C6.96341953,29.7134456 5.39329176,30.0967304 3.95290203,29.7885216 C1.96029876,29.3940522 0.333632911,27.622209 0.10188503,25.5814084 C-0.115447513,23.9720791 0.506596166,22.2719691 1.72967416,21.2128955 C2.50585586,20.5281506 3.49826764,20.0877231 4.52839228,20.0081481" id="Fill-23" fill="#ED1F24"></path>
                        <g id="Group-27" transform="translate(16.225056, 19.970501)">
                            <mask id="mask-6" fill="white">
                                <use xlink:href="#path-5"></use>
                            </mask>
                            <g id="Clip-26"></g>
                            <path d="M4.37828347,0.0454933852 C5.58469958,-0.0822682035 6.83881318,0.237125256 7.81127647,0.980169165 C9.00993367,1.85990977 9.777254,3.31906611 9.79499755,4.81968137 C9.83824357,5.92021385 9.49339873,7.02635968 8.84693426,7.91059938 C8.07851146,8.97974334 6.86431564,9.70371867 5.56918177,9.87518872 C4.04009506,10.0982091 2.42339306,9.53449816 1.362212,8.39809909 C0.214559722,7.21351349 -0.256694944,5.41925891 0.136949872,3.81217917 C0.574943173,1.81956512 2.36350596,0.225919575 4.37828347,0.0454933852" id="Fill-25" fill="#F89E1C" mask="url(#mask-6)"></path>
                        </g>
                        <path d="M36.7924961,20.013753 C37.8159643,19.9173799 38.8737964,20.1213318 39.7608701,20.6559248 C40.9639788,21.3597172 41.8488476,22.6025808 42.1038722,23.9855259 C42.362225,25.2967588 42.0717133,26.7155705 41.2955316,27.8003982 C40.5370726,28.9031802 39.307359,29.6607726 37.9911533,29.8400845 C36.8268808,30.0160327 35.6027003,29.7425762 34.6180474,29.0914483 C33.4293749,28.3192864 32.6043724,26.9990974 32.4369423,25.5802857 C32.222938,24.0415543 32.7873411,22.4131775 33.9139216,21.3529896 C34.6867959,20.594283 35.7202488,20.1168537 36.7924961,20.013753" id="Fill-28" fill="#21AE5C"></path>
                        <path d="M52.9805443,20.0103913 C54.4231597,19.866946 55.9234158,20.3880627 56.9346944,21.446022 C57.9481779,22.4535242 58.4704375,23.9306139 58.3429252,25.359517 C58.2475718,26.5474664 57.7108761,27.6928216 56.8559612,28.5142842 C55.7814881,29.569994 54.2058272,30.0743127 52.7255197,29.8344733 C51.1975146,29.615952 49.8025967,28.6117926 49.1084555,27.2187561 C48.4764064,25.9971896 48.3954683,24.503302 48.8644972,23.2122519 C49.4854592,21.4695476 51.1498379,20.1628138 52.9805443,20.0103913" id="Fill-30" fill="#8150A0"></path>
                        <g id="Group-34" transform="translate(64.713011, 19.970501)">
                            <mask id="mask-8" fill="white">
                                <use xlink:href="#path-7"></use>
                            </mask>
                            <g id="Clip-33"></g>
                            <path d="M4.46334228,0.0376473057 C5.58771785,-0.063224852 6.74202657,0.222572587 7.67344878,0.872565188 C8.80005009,1.63802046 9.58288823,2.90104583 9.76252872,4.26269382 C9.9865177,5.75548823 9.48530908,7.33790706 8.43523595,8.41377863 C7.39624994,9.51656066 5.83165533,10.0791574 4.33693246,9.88527594 C2.99745009,9.73958106 1.74333648,8.9887163 0.951616165,7.88929808 C0.337331391,7.04092497 -0.000877817123,5.98746476 0.0201939541,4.93511881 C0.00688108778,3.40536458 0.76866826,1.89688642 1.98619229,0.992484902 C2.70693839,0.457912923 3.5707146,0.114972816 4.46334228,0.0376473057" id="Fill-32" fill="#2E7FC2" mask="url(#mask-8)"></path>
                        </g>
                    </g>
                </g>
            </g>
        </g>
    </g>
</svg>