<?xml version="1.0" encoding="UTF-8"?>
<svg width="38px" height="38px" viewBox="0 0 38 38" version="1.1" xmlns="http://www.w3.org/2000/svg" xmlns:xlink="http://www.w3.org/1999/xlink">
    <!-- Generator: Sketch 41.2 (35397) - http://www.bohemiancoding.com/sketch -->
    <title>Group_User Copy 3</title>
    <desc>Created with Sketch.</desc>
    <defs>
        <ellipse id="path-1" cx="17.5609756" cy="17.608618" rx="17.5609756" ry="17.608618"></ellipse>
        <mask id="mask-3" maskContentUnits="userSpaceOnUse" maskUnits="objectBoundingBox" x="-1" y="-1" width="37.1219512" height="37.2172359">
            <rect x="-1" y="-1" width="37.1219512" height="37.2172359" fill="white"></rect>
            <use xlink:href="#path-1" fill="black"></use>
        </mask>
    </defs>
    <g id="FFT-search_1129" stroke="none" stroke-width="1" fill="none" fill-rule="evenodd">
        <g id="Header/green_W1440_H60_登入前" transform="translate(-1226.000000, -11.000000)">
            <g id="Group_User-Copy-3" transform="translate(1227.000000, 12.000000)">
                <mask id="mask-2" fill="white">
                    <use xlink:href="#path-1"></use>
                </mask>
                <g id="Mask">
                    <use fill="#4A4A4A" fill-rule="evenodd" xlink:href="#path-1"></use>
                    <use stroke="#FFFFFF" mask="url(#mask-3)" stroke-width="2" xlink:href="#path-1"></use>
                </g>
                <path d="M17.622322,22.5609756 C22.3838919,22.5609756 26.2431769,18.6293135 26.2431769,13.7801142 C26.2431769,8.93091489 22.3831584,5 17.622322,5 C12.8614857,5 9,8.93166207 9,13.7808614 C9,18.6300607 12.8614857,22.5609756 17.622322,22.5609756 L17.622322,22.5609756 Z" id="Path" fill="#FFFFFF" mask="url(#mask-2)"></path>
                <path d="M20.4982318,21 L13.9224147,21 C8.45113972,21 4,25.7106974 4,31.500159 L4,40.0095583 L4.02044227,40.1428338 L4.57436188,40.3263494 C9.79571363,42.0526514 14.3319196,42.628318 18.0656015,42.628318 C25.358217,42.628318 29.5851511,40.4282249 29.8456252,40.2879716 L30.3632763,40.0109538 L30.4186682,40.0109538 L30.4186682,31.500159 C30.4206465,25.7106974 25.9695068,21 20.4982318,21 L20.4982318,21 Z" id="Path" fill="#FFFFFF" mask="url(#mask-2)"></path>
                <path d="M16.2326601,21.6821646 C16.2326601,21.1545324 16.2642432,20.6956479 16.3274104,20.3054973 C16.3905777,19.9153468 16.4946163,19.558643 16.6395293,19.2353754 C16.7844424,18.9121078 16.9720835,18.6055655 17.2024581,18.3157393 C17.4328327,18.0259132 17.7152232,17.7175131 18.049638,17.3905297 C18.3023069,17.1452922 18.5382516,16.9130632 18.757479,16.6938357 C18.9767065,16.4746083 19.169921,16.2498106 19.3371284,16.019436 C19.5043358,15.7890613 19.6362419,15.5438275 19.7328506,15.2837271 C19.8294593,15.0236267 19.877763,14.733805 19.877763,14.414253 C19.877763,13.7156977 19.7049846,13.1824999 19.3594226,12.8146437 C19.0138607,12.4467874 18.5066726,12.262862 17.837843,12.262862 C17.5703112,12.262862 17.3102147,12.3000187 17.0575457,12.3743331 C16.8048768,12.4486475 16.5782213,12.5675487 16.3775724,12.7310404 C16.1769235,12.8945321 16.0152922,13.1026093 15.8926734,13.3552782 C15.7700546,13.6079471 15.7087462,13.9126316 15.7087462,14.2693407 L13,14.2693407 C13.0074314,13.5707854 13.1356218,12.955843 13.3845751,12.424495 C13.6335283,11.8931471 13.9753694,11.4472674 14.4101086,11.0868426 C14.8448478,10.7264178 15.3538938,10.4551743 15.9372618,10.273104 C16.5206298,10.0910338 17.1541505,10 17.837843,10 C18.5884184,10 19.2572379,10.0966073 19.8443216,10.2898247 C20.4314054,10.4830421 20.9293044,10.7654326 21.3380335,11.1370046 C21.7467627,11.5085766 22.0570207,11.9618876 22.2688167,12.4969512 C22.4806127,13.0320149 22.5865091,13.6376681 22.5865091,14.3139291 C22.5865091,14.8044041 22.5084802,15.2614308 22.35242,15.6850229 C22.1963597,16.1086149 21.9882826,16.506191 21.7281822,16.877763 C21.4680818,17.2493349 21.1708287,17.6060387 20.8364139,17.9478849 C20.5019991,18.2897311 20.1564423,18.6278566 19.7997332,18.9622713 C19.3910041,19.3338433 19.1179027,19.7407085 18.9804211,20.1828792 C18.8429395,20.6250498 18.770484,21.1248067 18.7630526,21.6821646 L16.2326601,21.6821646 Z M16.0431593,25.1489139 C16.0431593,24.9408336 16.0766003,24.747619 16.1434832,24.5692645 C16.2103662,24.3909099 16.3088313,24.234852 16.4388815,24.1010861 C16.5689317,23.9673202 16.7287052,23.8632816 16.9182069,23.7889672 C17.1077086,23.7146528 17.325075,23.6774962 17.5703125,23.6774962 C17.81555,23.6774962 18.0329164,23.7146528 18.2224181,23.7889672 C18.4119198,23.8632816 18.5716933,23.9673202 18.7017435,24.1010861 C18.8317937,24.234852 18.9321166,24.3909099 19.0027153,24.5692645 C19.073314,24.747619 19.1086128,24.9408336 19.1086128,25.1489139 C19.1086128,25.557643 18.9748489,25.8994841 18.7073171,26.1744474 C18.4397852,26.4494107 18.0607875,26.5868902 17.5703125,26.5868902 C17.0798375,26.5868902 16.7026976,26.4494107 16.4388815,26.1744474 C16.1750654,25.8994841 16.0431593,25.557643 16.0431593,25.1489139 L16.0431593,25.1489139 Z" id="?" fill="#4A4A4A" mask="url(#mask-2)"></path>
            </g>
        </g>
    </g>
</svg>