<?xml version="1.0" encoding="utf-8"?>
<!-- Generator: Adobe Illustrator 16.0.0, SVG Export Plug-In . SVG Version: 6.00 Build 0)  -->
<!DOCTYPE svg PUBLIC "-//W3C//DTD SVG 1.1//EN" "http://www.w3.org/Graphics/SVG/1.1/DTD/svg11.dtd">
<svg version="1.1" id="圖層_1" xmlns="http://www.w3.org/2000/svg" xmlns:xlink="http://www.w3.org/1999/xlink" x="0px" y="0px"
	 width="305.863px" height="305.863px" viewBox="0 0 305.863 305.863" enable-background="new 0 0 305.863 305.863"
	 xml:space="preserve">
<g id="FFT-公版頁_1129">
	<g id="_x31_440_x5F_contact" transform="translate(-541.000000, -266.000000)">
		<g id="Group-5" transform="translate(541.000000, 207.000000)">
			<g id="message-closed-envelope" transform="translate(0.000000, 59.000000)">
				<g id="Capa_1">
					<path id="Shape_7_" fill="#33A8AF" d="M237.49,68.688H68.372c-14.572,0-26.353,11.374-26.353,25.312v117.874
						c0,13.922,11.78,25.303,26.353,25.303H237.49c14.517,0,26.354-11.323,26.354-25.303V93.999
						C263.786,80.062,252.007,68.688,237.49,68.688z M227.274,91.032l-74.343,63.032L78.524,91.032H227.274z M241.5,211.873
						c0,1.563-1.86,2.95-4.01,2.95H68.372c-2.157,0-4.008-1.388-4.008-2.95V109.605l79.392,67.325
						c5.282,4.465,13.068,4.465,18.343,0l79.401-67.325V211.873L241.5,211.873z"/>
				</g>
			</g>
		</g>
	</g>
</g>
</svg>
