<?xml version="1.0" encoding="UTF-8"?>
<svg width="1440px" height="864px" viewBox="0 0 1440 864" version="1.1" xmlns="http://www.w3.org/2000/svg" xmlns:xlink="http://www.w3.org/1999/xlink">
    <!-- Generator: Sketch 42 (36781) - http://www.bohemiancoding.com/sketch -->
    <title>Group 7</title>
    <desc>Created with Sketch.</desc>
    <defs>
        <linearGradient x1="50%" y1="0%" x2="50%" y2="99.5834662%" id="linearGradient-1">
            <stop stop-color="#FFFFFF" offset="0%"></stop>
            <stop stop-color="#B1E4FF" offset="51.2256856%"></stop>
            <stop stop-color="#EBF7FF" offset="100%"></stop>
        </linearGradient>
        <rect id="path-2" x="0" y="0" width="1440" height="864"></rect>
        <linearGradient x1="48.992107%" y1="100%" x2="50%" y2="0%" id="linearGradient-4">
            <stop stop-color="#FFFFFF" stop-opacity="0.327672101" offset="0%"></stop>
            <stop stop-color="#FFFFFF" offset="100%"></stop>
        </linearGradient>
    </defs>
    <g id="FFT-公版頁_1129" stroke="none" stroke-width="1" fill="none" fill-rule="evenodd">
        <g id="1440_Monthly-Stories" transform="translate(0.000000, -828.000000)">
            <g id="Group-7" transform="translate(0.000000, 828.000000)">
                <g id="Group-4">
                    <mask id="mask-3" fill="white">
                        <use xlink:href="#path-2"></use>
                    </mask>
                    <use id="Mask" fill="url(#linearGradient-1)" xlink:href="#path-2"></use>
                    <g mask="url(#mask-3)" id="Combined-Shape" fill="url(#linearGradient-4)">
                        <g transform="translate(-45.000000, 528.000000)">
                            <path d="M1320.71282,189.58635 C1335.91366,199.803131 1348.15594,214.082625 1355.88418,230.869372 C1372.94178,222.401971 1392.16495,217.641433 1412.5,217.641433 C1482.91631,217.641433 1540,274.725127 1540,345.141433 C1540,415.557738 1482.91631,472.641433 1412.5,472.641433 C1350.62995,472.641433 1299.05261,428.573111 1287.44433,370.112817 C1280.22944,371.767356 1272.7168,372.641433 1265,372.641433 C1265,427.869908 1220.22847,472.641433 1165,472.641433 C1109.77153,472.641433 1065,427.869908 1065,372.641433 C1065,328.29713 1093.86366,290.694297 1133.82854,277.595388 C1126.92513,264.992072 1123,250.525134 1123,235.141433 C1123,225.881133 1124.42227,216.953022 1127.06029,208.563628 C1125.71328,208.61534 1124.35969,208.641433 1123,208.641433 C1065.56239,208.641433 1019,162.079047 1019,104.641433 C1019,47.2038187 1065.56239,0.641432674 1123,0.641432674 C1159.75437,0.641432674 1192.05564,19.7074736 1210.55296,48.488731 C1225.71904,36.6770361 1244.78789,29.6414327 1265.5,29.6414327 C1314.92949,29.6414327 1355,69.7119476 1355,119.141433 C1355,147.737641 1341.58874,173.20148 1320.71281,189.586352 Z M100,273.641433 C100,218.412958 144.771525,173.641433 200,173.641433 C240.317043,173.641433 275.061506,197.500482 290.884183,231.869372 C307.941785,223.401971 327.164951,218.641433 347.5,218.641433 C417.916306,218.641433 475,275.725127 475,346.141433 C475,416.557738 417.916306,473.641433 347.5,473.641433 C285.629952,473.641433 234.052611,429.573111 222.444328,371.112817 C215.229439,372.767356 207.716795,373.641433 200,373.641433 C200,428.869908 155.228475,473.641433 100,473.641433 C44.771525,473.641433 0,428.869908 0,373.641433 C0,318.412958 44.771525,273.641433 100,273.641433 Z M359.682697,48.6605823 C372.612176,28.784437 395.021231,15.6414327 420.5,15.6414327 C442.479051,15.6414327 462.173772,25.4218109 475.469444,40.8678476 C522.708211,44.1858714 560,83.55867 560,131.641433 C560,181.899345 519.257912,222.641433 469,222.641433 C435.784606,222.641433 406.725602,204.845809 390.837142,178.268714 C378.748088,187.296397 363.748244,192.641433 347.5,192.641433 C307.459356,192.641433 275,160.182077 275,120.141433 C275,80.1007883 307.459356,47.6414327 347.5,47.6414327 C351.651646,47.6414327 355.721788,47.9903949 359.682693,48.6605878 Z"></path>
                        </g>
                    </g>
                </g>
                <g id="Page-1" transform="translate(1374.592329, 364.592329) rotate(28.000000) translate(-1374.592329, -364.592329) translate(1326.092329, 316.092329)">
                    <path d="M40.7420042,20.5592948 L40.7420042,31.2781426 L15.5010098,48.4244674 L15.5010098,58.5551675 L40.7420042,54.2695442 L40.7420042,67.676246 L35.6945689,73.7550492 L35.6945689,83.8914966 L48.3131571,78.822315 L48.3150662,78.8203992 L60.9355634,83.8914966 L60.9355634,73.7550492 L55.8881281,67.676246 L55.8881281,54.2695442 L81.1291226,58.5551675 L81.1291226,48.4244674 L55.8881281,31.2781426 L55.8881281,20.5592948 C55.8881281,16.3617978 52.4977177,12.9593539 48.3150662,12.9593539 L48.3131571,12.9593539 C44.1324146,12.9593539 40.7420042,16.3617978 40.7420042,20.5592948" id="Fill-1" fill="#FFFFFF" transform="translate(48.315066, 48.425425) rotate(41.000000) translate(-48.315066, -48.425425) "></path>
                    <path d="M44.3108191,89.5270543 L56.9332254,94.5962359 L56.9332254,84.4597885 L51.8857901,78.3809853 L51.8857901,64.9742835 L77.1267845,69.2599068 L77.1267845,59.1292067 L51.8857901,41.9828819 L51.8857901,31.2640341 C51.8857901,27.0665372 48.4953797,23.6640933 44.3127281,23.6640933 C43.9075115,32.8049223 44.3108191,89.5270543 44.3108191,89.5270543 Z" id="Fill-1" fill="#F0F0F0" transform="translate(60.629460, 59.130165) rotate(41.000000) translate(-60.629460, -59.130165) "></path>
                </g>
                <path d="M1133.58162,527.761467 C1133.58162,527.761467 1254.85514,499.93687 1220.78499,447.997622 C1212.72192,435.705645 1212.67305,413.989781 1249.98798,413.371456 C1260.1038,413.203833 1341.7393,415.468857 1341.7393,415.468857" id="Line" stroke="#FFFFFF" stroke-width="3" stroke-linecap="square" stroke-dasharray="10,10" transform="translate(1237.660459, 470.562029) rotate(-18.000000) translate(-1237.660459, -470.562029) "></path>
            </g>
        </g>
    </g>
</svg>