<?xml version="1.0" encoding="utf-8"?>
<!-- Generator: Adobe Illustrator 16.0.0, SVG Export Plug-In . SVG Version: 6.00 Build 0)  -->
<!DOCTYPE svg PUBLIC "-//W3C//DTD SVG 1.1//EN" "http://www.w3.org/Graphics/SVG/1.1/DTD/svg11.dtd">
<svg version="1.1" id="圖層_1" xmlns="http://www.w3.org/2000/svg" xmlns:xlink="http://www.w3.org/1999/xlink" x="0px" y="0px"
	 width="305.863px" height="305.863px" viewBox="0 0 305.863 305.863" enable-background="new 0 0 305.863 305.863"
	 xml:space="preserve">
<g id="FFT-公版頁_1129_1_">
	<g id="_x31_440_x5F_contact_1_" transform="translate(-542.000000, -207.000000)">
		<g id="Group-5_1_" transform="translate(541.000000, 207.000000)">
			<g id="phone-call-_x28_1_x29_" transform="translate(1.000000, 0.000000)">
				<g id="Capa_1_1_">
					<g id="Group">
						<path id="Shape_8_" fill="#33A8AF" d="M227.283,173.776c-4.742-4.952-10.47-7.596-16.54-7.596
							c-6.023,0-11.797,2.599-16.742,7.535l-15.467,15.421c-1.271-0.682-2.546-1.32-3.77-1.958c-1.763-0.881-3.426-1.71-4.847-2.592
							c-14.485-9.199-27.651-21.187-40.285-36.714c-6.115-7.735-10.225-14.236-13.211-20.846c4.011-3.677,7.733-7.49,11.358-11.16
							c1.366-1.375,2.734-2.788,4.109-4.154c10.279-10.287,10.279-23.597,0-33.882l-13.361-13.356
							c-1.521-1.518-3.085-3.083-4.56-4.648c-2.932-3.039-6.017-6.169-9.193-9.109c-4.754-4.704-10.428-7.194-16.399-7.194
							c-5.973,0-11.753,2.49-16.646,7.194c-0.045,0.053-0.045,0.053-0.091,0.099L54.986,67.604
							c-6.258,6.261-9.83,13.901-10.619,22.76c-1.171,14.297,3.04,27.607,6.267,36.321c7.932,21.385,19.774,41.213,37.444,62.452
							c21.439,25.603,47.239,45.819,76.699,60.062c11.258,5.333,26.285,11.653,43.074,12.734c1.032,0.043,2.111,0.09,3.082,0.09
							c11.312,0,20.81-4.06,28.246-12.141c0.046-0.091,0.152-0.144,0.197-0.243c2.546-3.084,5.485-5.872,8.568-8.856
							c2.097-2.006,4.256-4.118,6.36-6.321c4.846-5.036,7.392-10.908,7.392-16.926c0-6.078-2.6-11.896-7.536-16.788L227.283,173.776
							z"/>
					</g>
				</g>
			</g>
		</g>
	</g>
</g>
</svg>
