<?xml version="1.0" encoding="utf-8"?>
<!-- Generator: Adobe Illustrator 16.0.0, SVG Export Plug-In . SVG Version: 6.00 Build 0)  -->
<!DOCTYPE svg PUBLIC "-//W3C//DTD SVG 1.1//EN" "http://www.w3.org/Graphics/SVG/1.1/DTD/svg11.dtd">
<svg version="1.1" id="圖層_1" xmlns="http://www.w3.org/2000/svg" xmlns:xlink="http://www.w3.org/1999/xlink" x="0px" y="0px"
	 width="305.863px" height="305.863px" viewBox="0 0 305.863 305.863" enable-background="new 0 0 305.863 305.863"
	 xml:space="preserve">
<g id="FFT-editPlan_1024_4_">
	<g id="EditPlan內頁_w1440px交通展開" transform="translate(-967.000000, -1396.000000)">
		<g id="Group_日程" transform="translate(0.000000, 1019.000000)">
			<path id="Shape-Copy-2" fill="#33A8AF" d="M1119.932,406.963c-46.739,0-84.54,38.489-84.54,86.082
				c0,64.55,84.54,159.855,84.54,159.855s84.54-95.306,84.54-159.855C1204.472,445.452,1166.671,406.963,1119.932,406.963
				L1119.932,406.963z M1119.932,523.778c-16.666,0-30.194-13.771-30.194-30.733c0-16.975,13.528-30.745,30.194-30.745
				s30.194,13.771,30.194,30.745C1150.126,510.008,1136.598,523.778,1119.932,523.778L1119.932,523.778z"/>
		</g>
	</g>
</g>
</svg>
