<?xml version="1.0" encoding="utf-8"?>
<!-- Generator: Adobe Illustrator 16.0.0, SVG Export Plug-In . SVG Version: 6.00 Build 0)  -->
<!DOCTYPE svg PUBLIC "-//W3C//DTD SVG 1.1//EN" "http://www.w3.org/Graphics/SVG/1.1/DTD/svg11.dtd">
<svg version="1.1" id="圖層_1" xmlns="http://www.w3.org/2000/svg" xmlns:xlink="http://www.w3.org/1999/xlink" x="0px" y="0px"
	 width="899.246px" height="155.278px" viewBox="0 0 899.246 155.278" enable-background="new 0 0 899.246 155.278"
	 xml:space="preserve">
<g>
	<path fill="#30A7AF" d="M0.103,155.278L0,154.558l0.343-0.052c0.001-0.001,1.23-0.196,3.473-0.583l0.342-0.059l0.112,0.718
		l-0.342,0.06c-2.248,0.387-3.481,0.582-3.481,0.582L0.103,155.278z M7.033,154.097l-0.117-0.718l0.342-0.063
		c1.042-0.186,2.188-0.396,3.433-0.625l0.341-0.064l0.122,0.718l-0.342,0.063c-1.246,0.231-2.394,0.441-3.437,0.628L7.033,154.097z
		 M13.899,152.829l-0.125-0.717l0.342-0.065c1.087-0.207,2.229-0.427,3.421-0.66l0.341-0.068l0.127,0.717l-0.341,0.065
		c-1.193,0.234-2.336,0.455-3.425,0.663L13.899,152.829z M20.744,151.49l-0.13-0.715l0.34-0.068
		c1.104-0.223,2.242-0.455,3.412-0.696l0.34-0.069l0.134,0.713l-0.34,0.07c-1.172,0.243-2.311,0.476-3.417,0.696L20.744,151.49z
		 M27.571,150.086l-0.137-0.715l0.34-0.07c1.111-0.235,2.247-0.477,3.404-0.728l0.34-0.075l0.14,0.714l-0.339,0.073
		c-1.159,0.251-2.296,0.494-3.408,0.729L27.571,150.086z M34.382,148.616l-0.143-0.713l0.339-0.076
		c1.114-0.245,2.247-0.5,3.396-0.76l0.338-0.078l0.147,0.711l-0.339,0.078c-1.15,0.262-2.284,0.516-3.4,0.762L34.382,148.616z
		 M41.179,147.078l-0.15-0.71l0.339-0.078c1.117-0.26,2.247-0.524,3.389-0.795l0.338-0.08l0.153,0.71l-0.339,0.08
		c-1.143,0.271-2.274,0.536-3.392,0.794L41.179,147.078z M47.96,145.474l-0.156-0.711l0.337-0.082
		c1.118-0.271,2.245-0.548,3.381-0.829l0.338-0.084l0.159,0.709l-0.337,0.082c-1.138,0.282-2.266,0.562-3.385,0.831L47.96,145.474z
		 M54.726,143.796l-0.163-0.708l0.337-0.085c1.117-0.284,2.241-0.573,3.371-0.868l0.337-0.087l0.167,0.706l-0.336,0.087
		c-1.132,0.295-2.257,0.584-3.376,0.87L54.726,143.796z M61.473,142.042l-0.171-0.707l0.337-0.088
		c1.115-0.298,2.236-0.601,3.361-0.907l0.336-0.093l0.174,0.704l-0.335,0.091c-1.126,0.31-2.249,0.612-3.366,0.909L61.473,142.042z
		 M68.199,140.208l-0.179-0.704l0.335-0.094c1.114-0.312,2.231-0.629,3.351-0.95l0.334-0.096l0.183,0.703l-0.334,0.095
		c-1.122,0.322-2.24,0.64-3.355,0.951L68.199,140.208z M74.905,138.287l-0.188-0.702l0.334-0.098
		c1.109-0.327,2.22-0.659,3.331-0.996l0.333-0.101l0.192,0.7l-0.333,0.101c-1.112,0.337-2.225,0.669-3.336,0.997L74.905,138.287z
		 M81.579,136.271l-0.197-0.697l0.333-0.104c1.112-0.346,2.223-0.696,3.333-1.051l0.332-0.105l0.202,0.694l-0.332,0.106
		c-1.111,0.355-2.224,0.707-3.338,1.054L81.579,136.271z M88.24,134.147l-0.208-0.695l0.331-0.108
		c1.105-0.364,2.207-0.732,3.307-1.104l0.33-0.11l0.213,0.691l-0.33,0.112c-1.101,0.373-2.206,0.74-3.312,1.106L88.24,134.147z
		 M94.856,131.91l-0.219-0.69l0.329-0.114c1.1-0.385,2.195-0.774,3.286-1.167l0.329-0.12l0.225,0.689l-0.328,0.118
		c-1.093,0.394-2.191,0.785-3.292,1.17L94.856,131.91z M101.433,129.544l-0.232-0.685l0.327-0.123
		c1.094-0.407,2.181-0.82,3.262-1.237l0.326-0.124l0.239,0.683l-0.325,0.125c-1.083,0.418-2.173,0.832-3.269,1.24L101.433,129.544z
		 M107.961,127.034l-0.247-0.683l0.324-0.129c1.085-0.435,2.164-0.873,3.232-1.317l0.323-0.135l0.256,0.678l-0.323,0.133
		c-1.072,0.447-2.152,0.888-3.241,1.322L107.961,127.034z M114.43,124.353l-0.264-0.671l0.32-0.139
		c1.076-0.466,2.141-0.938,3.196-1.413l0.318-0.144l0.274,0.669l-0.318,0.142c-1.057,0.479-2.126,0.951-3.206,1.418L114.43,124.353z
		 M120.824,121.479l-0.285-0.664l0.316-0.148c1.063-0.502,2.113-1.009,3.148-1.521l0.314-0.155l0.295,0.658l-0.313,0.156
		c-1.04,0.513-2.093,1.022-3.16,1.525L120.824,121.479z M127.122,118.375l-0.309-0.651l0.311-0.162
		c1.046-0.545,2.075-1.095,3.086-1.652l0.307-0.169l0.322,0.644l-0.307,0.17c-1.015,0.56-2.049,1.112-3.1,1.659L127.122,118.375z
		 M133.291,114.995l-0.337-0.637l0.303-0.178c1.028-0.601,2.038-1.21,3-1.813l0.298-0.188l0.355,0.627l-0.298,0.187
		c-0.968,0.604-1.983,1.218-3.018,1.823L133.291,114.995z M139.282,111.269l-0.375-0.611l0.292-0.197
		c0.993-0.667,1.961-1.344,2.876-2.013l0.285-0.208l0.396,0.599l-0.285,0.207c-0.924,0.674-1.898,1.356-2.898,2.028L139.282,111.269
		z M145.014,107.114l-0.42-0.58l0.275-0.22c0.938-0.752,1.842-1.517,2.688-2.269l0.264-0.236l0.45,0.556l-0.265,0.235
		c-0.854,0.763-1.769,1.533-2.717,2.292L145.014,107.114z M150.344,102.402l-0.481-0.525l0.25-0.252
		c0.846-0.856,1.649-1.728,2.384-2.595l0.231-0.271l0.518,0.486l-0.231,0.271c-0.748,0.878-1.561,1.764-2.421,2.633L150.344,102.402
		z M155.01,96.969l-0.558-0.433l0.205-0.292c0.694-0.989,1.323-1.994,1.868-2.99l0.173-0.316l0.602,0.364l-0.173,0.314
		c-0.558,1.02-1.2,2.047-1.911,3.06L155.01,96.969z M158.526,90.67l-0.643-0.272l0.13-0.339c0.43-1.116,0.771-2.253,1.015-3.377
		l0.077-0.354l0.676,0.161l-0.078,0.354c-0.25,1.163-0.604,2.336-1.047,3.488L158.526,90.67z M160.163,83.56l-0.693-0.034
		l0.016-0.362c0.014-0.307,0.021-0.613,0.021-0.921c0-0.876-0.056-1.766-0.167-2.646l-0.046-0.359l0.688-0.096l0.045,0.36
		c0.115,0.912,0.174,1.835,0.174,2.741c0,0.318-0.007,0.638-0.022,0.954L160.163,83.56z M158.712,76.45l-0.102-0.348
		c-0.32-1.105-0.734-2.23-1.228-3.345l-0.146-0.33l0.628-0.307l0.146,0.329c0.508,1.145,0.933,2.303,1.263,3.44l0.101,0.349
		L158.712,76.45z M155.936,69.905l-0.181-0.31c-0.577-0.985-1.229-1.985-1.939-2.975l-0.209-0.291l0.555-0.438l0.209,0.291
		c0.723,1.008,1.388,2.028,1.975,3.031l0.182,0.31L155.936,69.905z M151.867,64.1l-0.229-0.273c-0.729-0.867-1.52-1.751-2.352-2.626
		l0.493-0.51c0.84,0.881,1.641,1.775,2.379,2.654l0.229,0.273L151.867,64.1z M147.152,58.737l-0.216-0.284
		c-0.748-0.979-1.429-1.991-2.024-3.009l-0.182-0.31l0.592-0.382l0.181,0.311c0.58,0.992,1.244,1.979,1.974,2.936l0.216,0.282
		L147.152,58.737z M143.429,52.503l-0.136-0.336c-0.475-1.173-0.841-2.358-1.09-3.52l-0.076-0.356l0.677-0.159l0.076,0.355
		c0.239,1.121,0.592,2.264,1.051,3.396l0.136,0.336L143.429,52.503z M141.8,45.321V44.93c0-1.243,0.142-2.474,0.422-3.66
		l0.083-0.352l0.673,0.175l-0.083,0.352c-0.267,1.129-0.402,2.302-0.402,3.485v0.364L141.8,45.321z M143.941,38.466l-0.613-0.34
		l0.162-0.32c0.533-1.058,1.199-2.09,1.979-3.067l0.223-0.277l0.532,0.467L146,35.207c-0.749,0.938-1.388,1.927-1.896,2.938
		L143.941,38.466z M148.142,32.919l-0.45-0.557l0.265-0.234c0.849-0.759,1.798-1.495,2.82-2.188l0.291-0.198l0.377,0.61
		l-0.291,0.199c-0.997,0.677-1.921,1.395-2.747,2.132L148.142,32.919z M153.816,28.924l-0.316-0.648l0.309-0.166
		c0.996-0.532,2.062-1.048,3.171-1.531l0.321-0.14l0.265,0.673l-0.32,0.139c-1.091,0.476-2.142,0.983-3.121,1.509L153.816,28.924z
		 M160.14,26.097l-0.225-0.689l0.329-0.117c1.065-0.382,2.184-0.745,3.326-1.086l0.334-0.098l0.188,0.7l-0.333,0.099
		c-1.13,0.335-2.238,0.696-3.292,1.074L160.14,26.097z M166.762,24.081l-0.159-0.708l0.337-0.084
		c1.089-0.269,2.233-0.528,3.401-0.769l0.34-0.07l0.134,0.715l-0.341,0.069c-1.16,0.239-2.295,0.496-3.375,0.764L166.762,24.081z
		 M173.533,22.653l-0.111-0.719l0.342-0.058c1.119-0.192,2.276-0.372,3.438-0.535l0.343-0.049l0.093,0.721l-0.344,0.05
		c-1.157,0.162-2.307,0.341-3.419,0.531L173.533,22.653z M180.383,21.667l-0.075-0.726l0.345-0.038
		c1.124-0.129,2.275-0.248,3.458-0.354l0.345-0.03l0.061,0.726l-0.346,0.03c-1.177,0.107-2.324,0.224-3.443,0.352L180.383,21.667z
		 M187.275,21.021l-0.047-0.726l0.347-0.023c1.131-0.079,2.286-0.147,3.467-0.208l0.347-0.017l0.033,0.727l-0.347,0.017
		c-1.176,0.06-2.328,0.129-3.455,0.208L187.275,21.021z M194.188,20.658l-0.022-0.729l0.346-0.011
		c1.136-0.037,2.293-0.067,3.473-0.088l0.347-0.007l0.011,0.728l-0.346,0.007c-1.176,0.021-2.329,0.051-3.461,0.087L194.188,20.658z
		 M201.127,20.518l-0.008-0.729l4.18-0.05l0.008,0.728L201.127,20.518z M208.095,20.435l-0.008-0.728l4.174-0.053l0.008,0.728
		L208.095,20.435z M215.053,20.35l-0.008-0.729l4.171-0.051l0.008,0.729L215.053,20.35z M222.007,20.265L222,19.535l4.17-0.052
		l0.007,0.729L222.007,20.265z M228.958,20.177l-0.008-0.728l4.168-0.05l0.008,0.727L228.958,20.177z M235.908,20.092l-0.008-0.728
		l4.168-0.053l0.008,0.729L235.908,20.092z M242.856,20.005l-0.008-0.728l4.168-0.052l0.008,0.729L242.856,20.005z M249.805,19.919
		l-0.008-0.729l4.164-0.051l0.008,0.728L249.805,19.919z M256.754,19.832l-0.008-0.728l4.167-0.052l0.008,0.729L256.754,19.832z
		 M263.702,19.745l-0.008-0.729l4.168-0.051l0.008,0.727L263.702,19.745z M270.65,19.658l-0.008-0.729l4.168-0.052l0.008,0.729
		L270.65,19.658z M277.599,19.571l-0.008-0.729l4.169-0.052l0.008,0.728L277.599,19.571z M284.549,19.483l-0.009-0.726l4.169-0.055
		l0.009,0.729L284.549,19.483z M291.5,19.397l-0.007-0.729l4.17-0.052l0.008,0.728L291.5,19.397z M298.454,19.309l-0.008-0.728
		l4.172-0.052l0.008,0.729L298.454,19.309z M305.412,19.223l-0.008-0.728l4.176-0.054l0.009,0.729L305.412,19.223z M312.382,19.136
		l-0.008-0.728l4.188-0.055l0.008,0.729L312.382,19.136z M864.561,19.08h-4.163v-0.729h4.163V19.08z M857.624,19.08h-4.162v-0.729
		h4.162V19.08z M850.687,19.08h-4.161v-0.729h4.161V19.08z M843.75,19.08h-4.162v-0.729h4.162V19.08z M836.814,19.08h-4.162v-0.729
		h4.162V19.08z M829.877,19.08h-4.163v-0.729h4.163V19.08z M822.941,19.08h-4.163v-0.729h4.163V19.08z M816.004,19.08h-4.163v-0.729
		h4.163V19.08z M809.067,19.08h-4.162v-0.729h4.162V19.08z M802.131,19.08h-4.163v-0.729h4.163V19.08z M795.195,19.08h-4.162v-0.729
		h4.162V19.08z M788.257,19.08h-4.162v-0.729h4.162V19.08z M781.321,19.08h-4.162v-0.729h4.162V19.08z M774.385,19.08h-4.162v-0.729
		h4.162V19.08z M767.448,19.08h-4.162v-0.729h4.162V19.08z M760.512,19.08h-4.163v-0.729h4.163V19.08z M753.575,19.08h-4.161v-0.729
		h4.161V19.08z M746.639,19.08h-4.163v-0.729h4.163V19.08z M739.702,19.08h-4.161v-0.729h4.161V19.08z M732.765,19.08h-4.162v-0.729
		h4.162V19.08z M725.829,19.08h-4.162v-0.729h4.162V19.08z M718.892,19.08h-4.162v-0.729h4.162V19.08z M711.956,19.08h-4.162v-0.729
		h4.162V19.08z M705.019,19.08h-4.162v-0.729h4.162V19.08z M698.083,19.08h-4.162v-0.729h4.162V19.08z M691.146,19.08h-4.162v-0.729
		h4.162V19.08z M684.209,19.08h-4.163v-0.729h4.163V19.08z M677.272,19.08h-4.161v-0.729h4.161V19.08z M670.336,19.08h-4.162v-0.729
		h4.162V19.08z M663.399,19.08h-4.162v-0.729h4.162V19.08z M656.462,19.08h-4.161v-0.729h4.161V19.08z M649.526,19.08h-4.162v-0.729
		h4.162V19.08z M642.589,19.08h-4.161v-0.729h4.161V19.08z M635.653,19.08h-4.162v-0.729h4.162V19.08z M628.717,19.08h-4.163v-0.729
		h4.163V19.08z M621.78,19.08h-4.162v-0.729h4.162V19.08z M614.844,19.08h-4.162v-0.729h4.162V19.08z M607.907,19.08h-4.162v-0.729
		h4.162V19.08z M600.97,19.08h-4.162v-0.729h4.162V19.08z M594.034,19.08h-4.162v-0.729h4.162V19.08z M587.097,19.08h-4.162v-0.729
		h4.162V19.08z M580.161,19.08h-4.162v-0.729h4.162V19.08z M573.224,19.08h-4.162v-0.729h4.162V19.08z M566.288,19.08h-4.163v-0.729
		h4.163V19.08z M559.351,19.08h-4.162v-0.729h4.162V19.08z M552.415,19.08h-4.162v-0.729h4.162V19.08z M545.478,19.08h-4.162v-0.729
		h4.162V19.08z M538.542,19.08h-4.162v-0.729h4.162V19.08z M531.605,19.08h-4.162v-0.729h4.162V19.08z M524.668,19.08h-4.162v-0.729
		h4.162V19.08z M517.732,19.08h-4.163v-0.729h4.163V19.08z M510.795,19.08h-4.162v-0.729h4.162V19.08z M503.858,19.08h-4.162v-0.729
		h4.162V19.08z M496.922,19.08h-4.162v-0.729h4.162V19.08z M489.985,19.08h-4.163v-0.729h4.163V19.08z M483.049,19.08h-4.162v-0.729
		h4.162V19.08z M476.112,19.08h-4.162v-0.729h4.162V19.08z M469.176,19.08h-4.163v-0.729h4.163V19.08z M462.239,19.08h-4.162v-0.729
		h4.162V19.08z M455.302,19.08h-4.162v-0.729h4.162V19.08z M448.366,19.08h-4.162v-0.729h4.162V19.08z M441.429,19.08h-4.162v-0.729
		h4.162V19.08z M434.493,19.08h-4.163v-0.729h4.163V19.08z M427.556,19.08h-4.162v-0.729h4.162V19.08z M420.62,19.08h-4.162v-0.729
		h4.162V19.08z M413.683,19.08h-4.162v-0.729h4.162V19.08z M406.746,19.08h-4.162v-0.729h4.162V19.08z M399.81,19.08h-4.163v-0.729
		h4.163V19.08z M392.873,19.08h-4.161v-0.729h4.161V19.08z M385.937,19.08h-4.162v-0.729h4.162V19.08z M379,19.08h-4.162v-0.729H379
		V19.08z M372.063,19.08h-4.162v-0.729h4.162V19.08z M365.126,19.08h-4.161v-0.729h4.161V19.08z M358.19,19.08h-4.162v-0.729h4.162
		V19.08z M351.254,19.08h-4.162v-0.729h4.162V19.08z M344.317,19.08h-4.162v-0.729h4.162V19.08z M337.381,19.08h-4.162v-0.729h4.162
		V19.08z M330.444,19.08h-4.161v-0.729h4.161V19.08z M323.508,19.08h-4.162v-0.729h4.162V19.08z"/>
	<path fill="#33A8AF" d="M898.1,5.688L864.773,0.02c-0.919-0.121-1.794,0.321-2.229,1.126c-0.44,0.813-0.329,1.785,0.283,2.476
		l8.203,9.312l-3.883,7.078c-0.266,0.492-0.207,1.093,0.138,1.512c0.093,0.123,0.215,0.231,0.354,0.318
		c0.342,0.211,0.741,0.266,1.119,0.153l5.745-1.659l2.785,6.4c0.176,0.411,0.469,0.752,0.847,0.986
		c0.867,0.538,2.016,0.39,2.738-0.36l18-19.371c0.344-0.364,0.462-0.907,0.301-1.382C899.016,6.134,898.597,5.773,898.1,5.688z
		 M891.19,7.315l-17.985,3.906l-7.216-8.189L891.19,7.315z M893.586,9.625L879.461,24.82l-4.82-11.082L893.586,9.625z
		 M873.395,17.78l-2.234,0.643l1.403-2.551L873.395,17.78z"/>
</g>
</svg>
