<?xml version="1.0" encoding="utf-8"?>
<!-- Generator: Adobe Illustrator 16.0.0, SVG Export Plug-In . SVG Version: 6.00 Build 0)  -->
<!DOCTYPE svg PUBLIC "-//W3C//DTD SVG 1.1//EN" "http://www.w3.org/Graphics/SVG/1.1/DTD/svg11.dtd">
<svg version="1.1" id="圖層_1" xmlns="http://www.w3.org/2000/svg" xmlns:xlink="http://www.w3.org/1999/xlink" x="0px" y="0px"
	 width="266.028px" height="201.805px" viewBox="0 0 266.028 201.805" enable-background="new 0 0 266.028 201.805"
	 xml:space="preserve">
<path fill="#33A8AF" d="M257.784,40.937L17.958,0.142C11.343-0.727,5.047,2.453,1.923,8.242c-3.171,5.853-2.371,12.85,2.035,17.817
	l59.03,67.007L35.047,144c-1.916,3.546-1.49,7.866,0.992,10.884c0.668,0.881,1.549,1.664,2.545,2.286
	c2.46,1.523,5.329,1.915,8.054,1.106l41.339-11.943l20.04,46.063c1.264,2.954,3.372,5.41,6.091,7.096
	c6.241,3.869,14.51,2.801,19.708-2.592L263.351,57.499c2.478-2.622,3.324-6.53,2.166-9.943
	C264.376,44.142,261.363,41.545,257.784,40.937z M208.063,52.646L78.639,80.757L26.709,21.82L208.063,52.646z M225.302,69.264
	l-101.65,109.351L88.969,98.868L225.302,69.264z M79.997,127.953l-16.073,4.622l10.092-18.358L79.997,127.953z"/>
</svg>
