<?xml version="1.0" encoding="utf-8"?>
<!-- Generator: Adobe Illustrator 16.0.0, SVG Export Plug-In . SVG Version: 6.00 Build 0)  -->
<!DOCTYPE svg PUBLIC "-//W3C//DTD SVG 1.1//EN" "http://www.w3.org/Graphics/SVG/1.1/DTD/svg11.dtd">
<svg version="1.1" id="圖層_1" xmlns="http://www.w3.org/2000/svg" xmlns:xlink="http://www.w3.org/1999/xlink" x="0px" y="0px"
	 width="880.762px" height="132.9px" viewBox="0 0 880.762 132.9" enable-background="new 0 0 880.762 132.9" xml:space="preserve">
<path fill="#30A7AF" d="M0.105,132.9L0,132.201l0.349-0.052c0.001-0.001,1.254-0.189,3.538-0.564l0.349-0.058l0.114,0.697
	l-0.349,0.058c-2.291,0.376-3.546,0.565-3.546,0.565L0.105,132.9z M7.165,131.753l-0.119-0.696l0.348-0.061
	c1.062-0.181,2.229-0.384,3.497-0.607l0.348-0.062l0.124,0.695l-0.348,0.062c-1.269,0.225-2.438,0.428-3.501,0.609L7.165,131.753z
	 M14.16,130.522l-0.127-0.695l0.348-0.063c1.108-0.201,2.271-0.414,3.485-0.642l0.347-0.065l0.13,0.695l-0.347,0.064
	c-1.215,0.227-2.379,0.441-3.489,0.643L14.16,130.522z M21.132,129.223L21,128.529l0.347-0.066c1.125-0.216,2.284-0.441,3.476-0.675
	l0.347-0.068l0.136,0.693l-0.346,0.067c-1.194,0.236-2.354,0.461-3.48,0.676L21.132,129.223z M28.087,127.86l-0.14-0.693
	l0.346-0.069c1.132-0.228,2.289-0.463,3.468-0.706l0.346-0.072l0.143,0.692l-0.346,0.071c-1.181,0.244-2.339,0.479-3.472,0.708
	L28.087,127.86z M35.027,126.434l-0.146-0.691l0.346-0.073c1.135-0.239,2.289-0.485,3.46-0.738l0.345-0.075l0.149,0.69l-0.345,0.075
	c-1.172,0.253-2.327,0.5-3.464,0.739L35.027,126.434z M41.951,124.941l-0.153-0.69l0.345-0.075c1.138-0.251,2.289-0.509,3.452-0.771
	l0.345-0.077l0.156,0.688l-0.345,0.078c-1.164,0.263-2.317,0.521-3.456,0.771L41.951,124.941z M48.859,123.383l-0.159-0.688
	l0.344-0.08c1.139-0.264,2.287-0.532,3.445-0.805l0.344-0.082l0.162,0.688l-0.344,0.08c-1.159,0.273-2.309,0.544-3.448,0.807
	L48.859,123.383z M55.751,121.756l-0.166-0.688l0.343-0.083c1.138-0.275,2.283-0.557,3.435-0.842l0.343-0.085l0.17,0.686
	l-0.343,0.085c-1.153,0.286-2.3,0.566-3.439,0.844L55.751,121.756z M62.625,120.053l-0.174-0.685l0.343-0.087
	c1.137-0.289,2.278-0.583,3.425-0.881l0.342-0.09l0.178,0.684l-0.342,0.089c-1.147,0.3-2.291,0.594-3.429,0.883L62.625,120.053z
	 M69.478,118.273l-0.182-0.684l0.341-0.091c1.135-0.303,2.273-0.61,3.414-0.923l0.341-0.093l0.187,0.682l-0.341,0.093
	c-1.142,0.313-2.282,0.621-3.418,0.924L69.478,118.273z M76.309,116.408l-0.191-0.681l0.34-0.095c1.13-0.318,2.262-0.64,3.394-0.967
	l0.339-0.098l0.196,0.679l-0.34,0.098c-1.133,0.327-2.267,0.65-3.398,0.968L76.309,116.408z M83.108,114.451l-0.201-0.677
	l0.339-0.101c1.133-0.336,2.265-0.676,3.396-1.021l0.338-0.103l0.206,0.676l-0.338,0.104c-1.132,0.344-2.266,0.686-3.4,1.021
	L83.108,114.451z M89.894,112.391l-0.212-0.675l0.337-0.105c1.126-0.354,2.249-0.711,3.369-1.071l0.336-0.108l0.217,0.672
	l-0.336,0.108c-1.121,0.362-2.247,0.72-3.374,1.074L89.894,112.391z M96.634,110.22l-0.223-0.671l0.335-0.111
	c1.121-0.373,2.237-0.751,3.348-1.133l0.334-0.115l0.229,0.669l-0.334,0.114c-1.114,0.383-2.232,0.762-3.354,1.136L96.634,110.22z
	 M103.333,107.923l-0.236-0.665l0.333-0.119c1.114-0.396,2.222-0.796,3.323-1.201l0.332-0.121l0.244,0.663l-0.332,0.122
	c-1.104,0.405-2.214,0.807-3.331,1.203L103.333,107.923z M109.984,105.486l-0.252-0.661l0.331-0.126
	c1.106-0.422,2.205-0.849,3.293-1.279l0.329-0.131l0.26,0.657l-0.329,0.13c-1.091,0.434-2.192,0.861-3.302,1.283L109.984,105.486z
	 M116.575,102.885l-0.27-0.652l0.327-0.135c1.096-0.452,2.182-0.909,3.256-1.371l0.324-0.14l0.279,0.649l-0.325,0.139
	c-1.077,0.464-2.166,0.922-3.266,1.375L116.575,102.885z M123.088,100.096l-0.29-0.645l0.322-0.145
	c1.083-0.487,2.153-0.979,3.208-1.477l0.32-0.15l0.301,0.64l-0.319,0.15c-1.059,0.499-2.132,0.993-3.219,1.481L123.088,100.096z
	 M129.504,97.082l-0.314-0.633l0.316-0.156c1.066-0.529,2.114-1.063,3.144-1.604l0.313-0.164l0.329,0.625l-0.313,0.165
	c-1.035,0.543-2.087,1.08-3.158,1.611L129.504,97.082z M135.789,93.801l-0.344-0.617l0.309-0.172
	c1.048-0.584,2.076-1.176,3.056-1.76l0.304-0.182l0.362,0.607l-0.304,0.182c-0.986,0.587-2.021,1.183-3.074,1.77L135.789,93.801z
	 M141.893,90.186l-0.381-0.595l0.297-0.19c1.011-0.647,1.998-1.305,2.93-1.954l0.291-0.202l0.403,0.58l-0.29,0.202
	c-0.941,0.654-1.934,1.316-2.953,1.969L141.893,90.186z M147.731,86.152l-0.428-0.563l0.281-0.214
	c0.956-0.729,1.877-1.471,2.738-2.201l0.269-0.229l0.458,0.539l-0.27,0.229c-0.871,0.739-1.802,1.488-2.768,2.225L147.731,86.152z
	 M153.162,81.579l-0.49-0.51l0.254-0.245c0.862-0.83,1.68-1.677,2.428-2.518l0.236-0.264l0.527,0.471l-0.235,0.264
	c-0.761,0.854-1.59,1.713-2.466,2.557L153.162,81.579z M157.915,76.306l-0.569-0.42l0.209-0.284
	c0.708-0.959,1.348-1.936,1.903-2.902l0.176-0.307l0.613,0.353l-0.176,0.307c-0.568,0.988-1.223,1.987-1.947,2.97L157.915,76.306z
	 M161.497,70.191l-0.655-0.265l0.132-0.328c0.438-1.084,0.786-2.187,1.034-3.278l0.078-0.344l0.689,0.156l-0.079,0.345
	c-0.256,1.128-0.615,2.267-1.067,3.386L161.497,70.191z M163.164,63.291l-0.706-0.033l0.017-0.353
	c0.014-0.298,0.021-0.596,0.021-0.895c0-0.849-0.057-1.712-0.17-2.567l-0.046-0.35L162.979,59l0.046,0.352
	c0.117,0.886,0.177,1.78,0.177,2.659c0,0.31-0.007,0.619-0.022,0.927L163.164,63.291z M161.687,56.391l-0.103-0.338
	c-0.327-1.073-0.748-2.166-1.251-3.247l-0.149-0.32l0.64-0.298l0.149,0.32c0.517,1.11,0.95,2.234,1.287,3.34l0.103,0.338
	L161.687,56.391z M158.858,50.037l-0.185-0.301c-0.587-0.955-1.252-1.927-1.976-2.887l-0.213-0.282l0.565-0.426l0.212,0.282
	c0.737,0.979,1.414,1.969,2.013,2.942l0.186,0.301L158.858,50.037z M154.713,44.402l-0.233-0.266
	c-0.743-0.842-1.549-1.699-2.396-2.548l0.503-0.495c0.855,0.854,1.671,1.723,2.423,2.576l0.233,0.266L154.713,44.402z
	 M149.91,39.198l-0.221-0.276c-0.762-0.95-1.455-1.933-2.062-2.92l-0.185-0.301l0.603-0.37l0.185,0.301
	c0.591,0.963,1.268,1.921,2.011,2.849l0.221,0.275L149.91,39.198z M146.117,33.146l-0.138-0.325
	c-0.484-1.139-0.857-2.289-1.11-3.417l-0.077-0.346l0.69-0.154l0.077,0.345c0.244,1.088,0.604,2.196,1.071,3.296l0.139,0.325
	L146.117,33.146z M144.458,26.177v-0.381c0-1.206,0.145-2.4,0.43-3.552l0.085-0.342l0.686,0.169l-0.085,0.343
	c-0.271,1.095-0.409,2.233-0.409,3.382v0.354L144.458,26.177z M146.639,19.523l-0.625-0.33l0.165-0.312
	c0.542-1.026,1.221-2.028,2.016-2.978l0.227-0.27l0.542,0.453l-0.227,0.271c-0.763,0.911-1.414,1.87-1.933,2.853L146.639,19.523z
	 M150.917,14.138l-0.458-0.539l0.27-0.229c0.865-0.735,1.831-1.45,2.873-2.124l0.296-0.192l0.384,0.593l-0.296,0.193
	c-1.016,0.657-1.957,1.354-2.799,2.068L150.917,14.138z M156.698,10.261l-0.322-0.629l0.315-0.161
	c1.014-0.518,2.101-1.018,3.23-1.486l0.327-0.136l0.271,0.653l-0.327,0.135c-1.112,0.461-2.182,0.954-3.18,1.464L156.698,10.261z
	 M163.141,7.517l-0.229-0.669l0.334-0.114c1.085-0.37,2.225-0.724,3.389-1.053l0.34-0.096l0.192,0.68l-0.34,0.096
	c-1.151,0.326-2.279,0.676-3.353,1.042L163.141,7.517z M169.887,5.561l-0.162-0.688l0.344-0.081
	c1.109-0.261,2.275-0.513,3.465-0.747l0.347-0.067l0.137,0.693l-0.347,0.067c-1.181,0.232-2.338,0.482-3.438,0.742L169.887,5.561z
	 M176.785,4.175l-0.113-0.697l0.349-0.058c1.14-0.185,2.318-0.359,3.503-0.519l0.35-0.047l0.094,0.7l-0.35,0.047
	c-1.178,0.158-2.35,0.332-3.483,0.517L176.785,4.175z M183.764,3.217l-0.077-0.703l0.351-0.038c1.145-0.124,2.318-0.239,3.523-0.343
	l0.352-0.03l0.061,0.704l-0.352,0.03c-1.199,0.104-2.368,0.218-3.507,0.341L183.764,3.217z M190.784,2.592l-0.047-0.705l0.353-0.022
	c1.152-0.077,2.329-0.144,3.532-0.202l0.353-0.017l0.034,0.706l-0.353,0.016c-1.199,0.059-2.372,0.126-3.52,0.202L190.784,2.592z
	 M197.827,2.238l-0.022-0.706l0.353-0.012c1.157-0.036,2.336-0.065,3.538-0.085l0.354-0.006l0.011,0.706l-0.353,0.006
	c-1.198,0.021-2.373,0.049-3.526,0.085L197.827,2.238z M204.897,2.102l-0.008-0.707l4.258-0.048l0.008,0.706L204.897,2.102z
	 M211.995,2.021l-0.008-0.706l4.252-0.05l0.008,0.706L211.995,2.021z M219.083,1.938l-0.008-0.707l4.249-0.05l0.008,0.707
	L219.083,1.938z M226.168,1.855l-0.008-0.707l4.248-0.05l0.008,0.707L226.168,1.855z M233.249,1.771l-0.008-0.706l4.247-0.05
	l0.008,0.706L233.249,1.771z M240.329,1.688l-0.008-0.706l4.247-0.051l0.008,0.707L240.329,1.688z M247.408,1.604l-0.008-0.706
	l4.246-0.051l0.008,0.707L247.408,1.604z M254.486,1.521l-0.009-0.707l4.242-0.05l0.008,0.707L254.486,1.521z M261.565,1.437
	l-0.008-0.707l4.246-0.05l0.008,0.707L261.565,1.437z M268.644,1.353l-0.008-0.707l4.246-0.051l0.008,0.706L268.644,1.353z
	 M275.723,1.269l-0.009-0.707l4.246-0.051l0.008,0.707L275.723,1.269z M282.801,1.184l-0.008-0.707l4.247-0.051l0.008,0.707
	L282.801,1.184z M289.881,1.099l-0.008-0.706l4.247-0.052l0.008,0.707L289.881,1.099z M296.962,1.015l-0.008-0.707l4.248-0.051
	l0.008,0.707L296.962,1.015z M304.047,0.93l-0.008-0.707l4.25-0.051l0.008,0.707L304.047,0.93z M311.136,0.845l-0.008-0.706
	l4.254-0.052l0.009,0.706L311.136,0.845z M318.236,0.76l-0.008-0.706l4.266-0.052l0.008,0.707L318.236,0.76z M880.762,0.707h-4.24V0
	h4.24V0.707z M873.695,0.707h-4.24V0h4.24V0.707z M866.629,0.707h-4.24V0h4.24V0.707z M859.562,0.707h-4.239V0h4.239V0.707z
	 M852.496,0.707h-4.24V0h4.24V0.707z M845.429,0.707h-4.24V0h4.24V0.707z M838.362,0.707h-4.24V0h4.24V0.707z M831.296,0.707h-4.24
	V0h4.24V0.707z M824.229,0.707h-4.24V0h4.24V0.707z M817.163,0.707h-4.24V0h4.24V0.707z M810.096,0.707h-4.24V0h4.24V0.707z
	 M803.029,0.707h-4.24V0h4.24V0.707z M795.963,0.707h-4.24V0h4.24V0.707z M788.896,0.707h-4.24V0h4.24V0.707z M781.83,0.707h-4.24V0
	h4.24V0.707z M774.764,0.707h-4.24V0h4.24V0.707z M767.697,0.707h-4.24V0h4.24V0.707z M760.63,0.707h-4.24V0h4.24V0.707z
	 M753.564,0.707h-4.24V0h4.24V0.707z M746.497,0.707h-4.24V0h4.24V0.707z M739.431,0.707h-4.24V0h4.24V0.707z M732.364,0.707h-4.24
	V0h4.24V0.707z M725.297,0.707h-4.24V0h4.24V0.707z M718.231,0.707h-4.24V0h4.24V0.707z M711.165,0.707h-4.24V0h4.24V0.707z
	 M704.098,0.707h-4.24V0h4.24V0.707z M697.031,0.707h-4.24V0h4.24V0.707z M689.964,0.707h-4.239V0h4.239V0.707z M682.898,0.707
	h-4.24V0h4.24V0.707z M675.832,0.707h-4.24V0h4.24V0.707z M668.765,0.707h-4.24V0h4.24V0.707z M661.698,0.707h-4.24V0h4.24V0.707z
	 M654.632,0.707h-4.24V0h4.24V0.707z M647.565,0.707h-4.24V0h4.24V0.707z M640.499,0.707h-4.24V0h4.24V0.707z M633.432,0.707h-4.24
	V0h4.24V0.707z M626.366,0.707h-4.24V0h4.24V0.707z M619.299,0.707h-4.24V0h4.24V0.707z M612.232,0.707h-4.24V0h4.24V0.707z
	 M605.166,0.707h-4.24V0h4.24V0.707z M598.099,0.707h-4.24V0h4.24V0.707z M591.033,0.707h-4.24V0h4.24V0.707z M583.966,0.707h-4.24
	V0h4.24V0.707z M576.9,0.707h-4.24V0h4.24V0.707z M569.833,0.707h-4.24V0h4.24V0.707z M562.767,0.707h-4.24V0h4.24V0.707z
	 M555.7,0.707h-4.24V0h4.24V0.707z M548.634,0.707h-4.24V0h4.24V0.707z M541.567,0.707h-4.24V0h4.24V0.707z M534.5,0.707h-4.24V0
	h4.24V0.707z M527.434,0.707h-4.24V0h4.24V0.707z M520.367,0.707h-4.24V0h4.24V0.707z M513.3,0.707h-4.24V0h4.24V0.707z
	 M506.234,0.707h-4.24V0h4.24V0.707z M499.167,0.707h-4.24V0h4.24V0.707z M492.101,0.707h-4.24V0h4.24V0.707z M485.034,0.707h-4.24
	V0h4.24V0.707z M477.968,0.707h-4.24V0h4.24V0.707z M470.901,0.707h-4.24V0h4.24V0.707z M463.834,0.707h-4.24V0h4.24V0.707z
	 M456.768,0.707h-4.24V0h4.24V0.707z M449.702,0.707h-4.24V0h4.24V0.707z M442.635,0.707h-4.24V0h4.24V0.707z M435.568,0.707h-4.24
	V0h4.24V0.707z M428.502,0.707h-4.24V0h4.24V0.707z M421.436,0.707h-4.24V0h4.24V0.707z M414.369,0.707h-4.24V0h4.24V0.707z
	 M407.302,0.707h-4.24V0h4.24V0.707z M400.236,0.707h-4.24V0h4.24V0.707z M393.169,0.707h-4.24V0h4.24V0.707z M386.103,0.707h-4.24
	V0h4.24V0.707z M379.036,0.707h-4.24V0h4.24V0.707z M371.969,0.707h-4.24V0h4.24V0.707z M364.903,0.707h-4.24V0h4.24V0.707z
	 M357.836,0.707h-4.24V0h4.24V0.707z M350.77,0.707h-4.24V0h4.24V0.707z M343.703,0.707h-4.24V0h4.24V0.707z M336.637,0.707h-4.24V0
	h4.24V0.707z M329.57,0.707h-4.24V0h4.24V0.707z"/>
</svg>
