<?xml version="1.0" encoding="UTF-8"?>
<svg width="73px" height="40px" viewBox="0 0 73 40" version="1.1" xmlns="http://www.w3.org/2000/svg" xmlns:xlink="http://www.w3.org/1999/xlink">
    <!-- Generator: sketchtool 42 (36781) - http://www.bohemiancoding.com/sketch -->
    <title>900F3E8E-A881-42C2-81FF-C56A4F4707F0</title>
    <desc>Created with sketchtool.</desc>
    <defs>
        <polygon id="path-1" points="0.0753187485 0.0961710326 30.9850342 0.0961710326 30.9850342 23.2692247 0.0753187485 23.2692247 0.0753187485 0.0961710326"></polygon>
        <polygon id="path-3" points="6.02802523 0.104805443 6.02802523 8.57568004 0.160869985 8.57568004 0.160869985 0.104805443 6.02802523 0.104805443"></polygon>
    </defs>
    <g id="FFT_ToolBox_0215" stroke="none" stroke-width="1" fill="none" fill-rule="evenodd">
        <g id="toolBox_w1440px" transform="translate(-607.000000, -90.000000)">
            <g id="Group-2" transform="translate(0.000000, 60.000000)">
                <g id="Group" transform="translate(455.000000, 30.000000)">
                    <g id="Page-1" transform="translate(152.000000, 0.000000)">
                        <g id="Group-3" transform="translate(17.077982, 0.073144)">
                            <mask id="mask-2" fill="white">
                                <use xlink:href="#path-1"></use>
                            </mask>
                            <g id="Clip-2"></g>
                            <path d="M19.2330388,1.86710642 C21.3778323,0.248622437 24.2554722,-0.304699631 26.8401076,0.390508573 C28.4102773,0.786198191 29.825908,1.66697585 30.9850342,2.79766275 C26.3118622,3.22569157 21.7806718,5.28456438 18.4471167,8.63988366 C14.5819677,12.4200148 12.33772,17.8292967 12.3902933,23.2692247 C10.0779011,23.2490762 7.76450436,23.2748121 5.45227959,23.2558488 C3.78399518,23.2379014 2.14752271,22.4229874 1.15164197,21.0627091 C-0.462562156,18.981656 -0.235358028,15.7335132 1.6601305,13.9093113 C3.2688094,12.231567 5.92326353,11.8567031 7.98132775,12.8703932 C7.78509839,10.3013737 9.71758922,7.79889507 12.2056167,7.31600813 C13.3965548,7.08455425 14.6328667,7.37069693 15.6828278,7.95805136 C15.9979333,5.5532676 17.2816282,3.29053929 19.2330388,1.86710642" id="Fill-1" fill="#5FDAE4" mask="url(#mask-2)"></path>
                        </g>
                        <path d="M46.2419672,5.97968792 C47.4360865,5.71708005 48.6553204,5.64376657 49.8733823,5.59737421 C50.2711989,6.5821114 50.5066071,7.62560097 50.5966851,8.68568342 C47.3920521,8.55548003 44.1313296,9.43067029 41.5041667,11.3151485 C37.6560956,13.9769527 35.2455888,18.6187288 35.3085429,23.3390673 C34.2888869,23.3322946 33.2709053,23.3322946 32.2529236,23.3390673 C32.2341713,19.4851147 33.4842126,15.6323474 35.8115062,12.5753615 C38.3502654,9.20090957 42.1275131,6.80509952 46.2419672,5.97968792" id="Fill-4" fill="#5FDAE4"></path>
                        <path d="M41.8633401,14.7593751 C45.1428149,11.5772653 50.3507622,10.7188373 54.4822943,12.5994212 C55.1870122,13.7903843 55.3140924,15.2510665 55.2395856,16.61253 C53.4234594,15.1762292 51.0538057,14.4451261 48.7569846,14.7649625 C46.2420007,15.0509359 43.8909319,16.544296 42.568058,18.7306631 C41.7042805,20.1019469 41.2923998,21.7261876 41.2654433,23.3445023 C40.2529869,23.3289253 39.2383539,23.3333275 38.2253952,23.3390842 C38.1711475,20.1298839 39.5224846,16.9277949 41.8633401,14.7593751" id="Fill-6" fill="#5FDAE4"></path>
                        <path d="M46.3165578,18.5652252 C48.1490922,17.1680362 50.801872,17.0461293 52.7780624,18.2108485 C53.3798101,18.5494789 53.8810991,19.0369374 54.3535899,19.5354013 C53.8303674,20.4676508 53.1239752,21.2768081 52.2938514,21.9395078 C51.9501151,21.5070768 51.5958307,21.0475554 51.0863376,20.8062812 C49.9397688,20.2150325 48.3762963,20.5121807 47.6119729,21.5897026 C47.2190119,22.0871507 47.1058284,22.7252997 47.0177596,23.337882 C46.0016197,23.3322946 44.985145,23.3390673 43.9705119,23.3322946 C43.9805578,21.4913305 44.8277596,19.6537526 46.3165578,18.5652252" id="Fill-8" fill="#5FDAE4"></path>
                        <path d="M11.2539546,30.9397281 C12.2290739,30.050146 13.1251656,29.0721815 13.9132642,28.0104058 C14.035489,27.7918199 14.3649936,27.4994126 14.0371633,27.3030069 C13.5971541,27.2334184 13.1469317,27.2390058 12.7070899,27.3018217 C12.2826518,27.3692092 12.036528,27.7610046 11.7708147,28.0612004 C11.0279225,28.9961589 10.1231243,29.7807656 9.19321147,30.5179639 C9.54749587,28.6063953 9.9207,26.6992289 10.2955784,24.7930784 C10.3419569,24.5138777 10.3992183,24.2295975 10.3273904,23.9509047 C9.91417018,23.692191 9.38860367,23.7798963 8.93067936,23.8322147 C8.56467477,23.8830093 8.49736743,24.280392 8.43357615,24.5817731 C7.79850963,27.9177904 7.15272752,31.2531305 6.50175505,34.5842377 C6.45152569,34.8644544 6.39158532,35.1580469 6.49689954,35.4352159 C7.0372,35.6658232 7.64464037,35.558816 8.19615872,35.4318296 C8.43910138,34.510247 8.57606009,33.5664841 8.76810367,32.6350812 C9.08304174,32.4474799 9.39580321,32.2575083 9.70689037,32.0643196 C10.1465647,33.1450585 10.4462665,34.2850578 10.9559271,35.334812 C11.3542459,35.6602358 11.9109546,35.543239 12.3846174,35.558816 C12.630239,35.5962347 13.0367619,35.4064323 12.8877482,35.0986173 C12.3775853,33.7000738 11.8039661,32.3237105 11.2539546,30.9397281" id="Fill-10" fill="#FFFFFF"></path>
                        <path d="M3.4212555,27.0866221 C2.8372555,27.1915975 2.25492982,27.3912202 1.77858807,27.7598194 C0.751565138,28.5137799 0.457388532,30.1339571 1.15808807,31.202336 C1.79382431,32.0776955 2.97103303,32.069907 3.84251239,32.5621063 C4.39637477,32.9098797 4.15694817,33.7806678 3.63188394,34.0312543 C2.64839312,34.5588405 1.52928303,34.1624736 0.528881651,33.9108712 C0.0307738532,34.1030439 -0.00589357798,34.7706538 0.000636238532,35.2310218 C0.191005505,35.543239 0.587817431,35.5664352 0.907108716,35.6570188 C2.1179711,35.8800069 3.44955138,35.9340185 4.57703303,35.3546219 C5.84147339,34.7298488 6.42162248,33.0114689 5.83594817,31.7322925 C5.24776239,30.7521268 3.98332202,30.7765082 3.08170505,30.2709331 C2.52131284,29.9807268 2.65827156,29.1163727 3.1555422,28.8337857 C3.84736789,28.4431755 4.69055138,28.5479816 5.42674633,28.7455724 C5.66734495,28.7985681 6.01225321,28.9243693 6.17215,28.6494014 C6.34292982,28.2665797 6.58587248,27.7654068 6.28784495,27.383601 C5.39125092,27.0060281 4.3761156,26.9266193 3.4212555,27.0866221" id="Fill-12" fill="#FFFFFF"></path>
                        <path d="M25.2761161,28.5987254 C26.0128133,28.4475269 26.7136803,28.7963162 27.4371505,28.8217135 C27.7864119,28.4519291 28.1411986,27.4917426 27.4743202,27.2819611 C26.6262812,27.0015751 25.709428,26.9331718 24.8319211,27.0865713 C23.8584761,27.2355687 22.8793385,27.7721286 22.4492078,28.7013304 C22.0902353,29.5523086 22.0805243,30.6572595 22.7211161,31.3768491 C23.418467,32.121836 24.5350656,32.0786606 25.3449303,32.6240249 C25.8164165,33.0136192 25.5326206,33.7960247 25.0458982,34.0367909 C24.151983,34.4915715 23.1140771,34.2486042 22.2069349,33.9672024 C21.9527743,33.8535919 21.6503936,33.9704193 21.5904532,34.2574086 C21.4811206,34.6085683 21.2291367,35.1205775 21.584928,35.4075667 C22.2005725,35.7111489 22.9066298,35.7619435 23.5800381,35.8071506 C24.6377009,35.8545589 25.7804188,35.6657724 26.5979853,34.9361932 C27.405506,34.2023812 27.6653592,32.9572372 27.3509234,31.9286474 C27.0105358,31.0412664 25.9942284,30.8226805 25.1942422,30.5622737 C24.7729853,30.4142922 24.1595174,30.2420987 24.1595174,29.6826813 C24.0843408,29.0457175 24.722756,28.6407155 25.2761161,28.5987254" id="Fill-14" fill="#FFFFFF"></path>
                        <path d="M33.6246204,33.8954635 C32.7230034,33.9926504 31.7647947,34.366837 30.8894644,33.9384696 C30.0904828,33.5356687 30.0163108,32.4970893 30.0970126,31.70571 C30.1952947,30.4409255 30.95493,29.1075683 32.2449874,28.7985681 C33.0406204,28.5445953 33.828719,28.8889824 34.6101204,29.0049633 C34.9474943,28.7013812 34.9692603,28.1991923 35.1263108,27.7952062 C34.87868,27.1948145 34.1942213,27.1374167 33.6408612,27.0524205 C32.236281,26.860417 30.7093085,27.2224129 29.6724071,28.2355951 C28.4446342,29.4231719 27.9992672,31.2323048 28.1052511,32.9044616 C28.1533039,33.8402667 28.5417443,34.8358401 29.3723704,35.3280394 C30.4169736,35.9616169 31.7145654,35.8756047 32.8626411,35.6414418 C33.2534255,35.57761 33.6758544,35.3502197 33.7282603,34.9130478 C33.7414874,34.5818673 33.9760585,34.1128642 33.6246204,33.8954635" id="Fill-16" fill="#FFFFFF"></path>
                        <path d="M39.2105603,33.4539911 C38.7019044,33.9385712 37.9968516,34.2343648 37.2939755,34.2023642 C36.9731773,34.1801839 36.616214,34.0333877 36.4842782,33.7165989 C36.2756589,33.0996143 36.6031544,32.3834111 37.1531658,32.0720404 C37.8997415,31.6130269 38.8011911,31.5820422 39.6470534,31.5654493 C39.4931842,32.1892065 39.4769433,32.8668059 39.2105603,33.4539911 M40.9469892,27.3283365 C39.7279227,26.8051525 38.3461131,26.997156 37.0898768,27.2775419 C36.7002644,27.37693 36.1469044,27.4895246 36.1065534,27.9905282 C36.0616819,28.3107033 35.9570374,28.9883027 36.4579915,28.9442808 C37.4707828,28.748891 38.5405007,28.3525241 39.5609938,28.7289118 C40.1339433,28.9927049 39.9931337,29.720083 39.9233149,30.224473 C38.2402966,30.1758795 36.288886,30.3338506 35.0860603,31.6804144 C34.209558,32.7388037 34.1015649,34.7453581 35.4167369,35.495763 C36.6347989,36.1095306 38.2076475,35.8249118 39.1996773,34.8987576 C39.3414915,35.8955162 40.9088149,36.1813203 41.4054158,35.371147 C41.7853172,34.7761734 40.9099869,34.3491605 41.1206154,33.7421655 C41.3520053,32.2730175 41.7046154,30.8228329 41.9174204,29.3514838 C42.0505282,28.5611205 41.7196842,27.6441093 40.9469892,27.3283365" id="Fill-18" fill="#FFFFFF"></path>
                        <path d="M48.8763966,27.0932931 C47.6081053,26.8007165 46.277697,27.2930851 45.289853,28.099872 C45.2320892,27.8525025 45.2963828,27.5600951 45.1195755,27.3548851 C44.6787291,27.2234965 44.1493117,27.1782894 43.7367612,27.4078808 C43.4879585,27.7002881 43.4944883,28.1206978 43.4017314,28.4784608 C43.0077658,30.745422 42.4892314,32.9925733 42.1530296,35.2663071 C42.4358209,35.7254899 43.0578278,35.5400897 43.5010181,35.5400897 C43.8753943,35.5356876 44.0478484,35.1515114 44.0881993,34.8269341 C44.3961053,33.169169 44.7244378,31.5147902 45.0181122,29.8558399 C45.756986,29.2134581 46.7557131,28.6594587 47.7542727,28.9242677 C48.3044516,29.0688629 48.3513323,29.7278376 48.2694585,30.19701 C48.0271856,31.8381823 47.6136305,33.4517561 47.3745388,35.0919124 C47.27408,35.5576985 47.8547314,35.568704 48.1626374,35.5665029 C48.5182612,35.5554974 49.0575571,35.6106942 49.2015479,35.1813108 C49.4667589,34.0919369 49.6228048,32.9759804 49.8510135,31.8779713 C50.0268163,30.8194127 50.3466099,29.7608541 50.2712658,28.6782527 C50.2056328,27.9066834 49.6140984,27.2598993 48.8763966,27.0932931" id="Fill-20" fill="#FFFFFF"></path>
                        <path d="M57.1320101,27.074533 C55.8811317,26.8139569 54.6019573,27.3239343 53.619806,28.0921174 C53.6077509,27.9553107 53.5826362,27.6805121 53.5717532,27.5415043 C53.3326615,27.1273594 52.7585399,27.2731397 52.3655789,27.2897326 C52.0174894,27.3151299 51.8800284,27.6661203 51.8418541,27.9663162 C51.4105514,30.1980598 50.9958243,32.4364067 50.5593312,34.6691662 C50.5375651,34.907562 50.440455,35.1735562 50.5636844,35.4009465 C50.9718817,35.6603374 51.5023037,35.570939 51.9575491,35.514557 C52.3754573,35.4319312 52.388517,34.9461659 52.4725674,34.6105832 C52.7531821,33.0146181 53.0795055,31.4298279 53.3621294,29.8348787 C54.0879436,29.2224656 55.0330927,28.708086 56.0077096,28.8956873 C56.5088312,28.9827153 56.717283,29.5446724 56.6288794,30.0038553 C56.4018427,31.7718446 55.9161248,33.4981823 55.6924367,35.2663409 C55.8965353,35.6393423 56.3581431,35.5577324 56.7105858,35.5655209 C57.0216729,35.5907489 57.3032922,35.4473389 57.554439,35.2761612 C57.7813083,33.9373859 58.0575697,32.6063992 58.3030239,31.2686398 C58.4592372,30.4166457 58.6795766,29.5544927 58.6075812,28.6815036 C58.5442922,27.8847062 57.9003518,27.2157419 57.1320101,27.074533" id="Fill-22" fill="#FFFFFF"></path>
                        <path d="M64.7557216,30.8160941 C63.6456528,30.813893 62.5345794,30.8260837 61.423506,30.8094908 C61.6428408,29.9938995 62.0358018,29.1163389 62.8521963,28.7643326 C63.4012032,28.5535351 64.1554807,28.4695548 64.585444,28.9619234 C65.0001711,29.4939117 64.827717,30.2035117 64.7557216,30.8160941 M64.8146573,27.098779 C63.6270679,26.8735897 62.3195977,27.042397 61.3034578,27.7343882 C60.1093385,28.5491329 59.4938615,29.986111 59.3180587,31.3910885 C59.1861229,32.485034 59.156655,33.7066432 59.7897124,34.6592105 C60.4728317,35.6459795 61.7715954,35.840184 62.877311,35.8115697 C63.6871757,35.7551878 64.5603294,35.7243724 65.2796138,35.3081957 C65.5622376,34.9297762 65.7609784,34.2244091 65.4083683,33.8536088 C64.2591206,34.0146275 63.005061,34.442995 61.8971688,33.8844242 C61.2947514,33.5644184 61.1932881,32.8302677 61.1921161,32.2134525 C62.7616161,32.2100662 64.3322881,32.2200558 65.9017881,32.2112514 C66.2083546,32.245453 66.5368546,32.0632699 66.5653179,31.7300576 C66.7520037,30.7498919 66.865522,29.7168999 66.6188959,28.7367342 C66.4070954,27.8867719 65.6595151,27.2465911 64.8146573,27.098779" id="Fill-24" fill="#FFFFFF"></path>
                        <g id="Group-28" transform="translate(66.805046, 26.994261)">
                            <mask id="mask-4" fill="white">
                                <use xlink:href="#path-3"></use>
                            </mask>
                            <g id="Clip-27"></g>
                            <path d="M5.93561995,0.156328723 C4.94241812,-0.0654741872 3.95691812,0.459910873 3.25286995,1.1375103 C3.2048172,0.855092546 3.31281032,0.404714118 2.93625757,0.315315694 C2.44300528,0.210509586 1.61673234,0.165302428 1.53703509,0.839515547 C1.09066353,3.20366366 0.617000688,5.56340958 0.193567202,7.9343303 C0.0865786697,8.22453655 0.249154358,8.55690228 0.578826376,8.54572748 C1.06889748,8.56452147 1.91693647,8.72452433 2.04016583,8.0535282 C2.4200672,6.21357994 2.74304197,4.36042509 3.1087117,2.51607464 C3.6326039,2.22586839 4.19684702,2.00846768 4.79189748,1.93769392 C5.12793188,1.8638725 5.60929656,1.89248677 5.74893417,1.49307221 C5.89091583,1.07469436 6.1747117,0.583510968 5.93561995,0.156328723" id="Fill-26" fill="#FFFFFF" mask="url(#mask-4)"></path>
                        </g>
                        <g id="Group-31" transform="translate(13.561927, 27.163576)" fill="#FFFFFF">
                            <path d="M7.91825642,0.31049021 C7.58975642,-0.00748373176 7.08880229,0.10951307 6.67842844,0.107311973 C6.34440321,0.0808988017 6.07266239,0.35248038 6.03666468,0.675703093 C5.67970138,2.41084524 5.35321055,4.15140548 5.01717615,5.89094983 C4.34477248,6.43834586 3.45303394,6.86755989 2.5756945,6.63475149 C2.05716009,6.46916123 2.07892615,5.84015527 2.13250413,5.39858123 C2.37695367,3.74741942 2.80155917,2.12487187 3.03395367,0.473879377 C2.98054312,0.0378927414 2.47021284,0.102909777 2.15427018,0.089703192 C1.81488716,0.0985075823 1.29601789,0.0720944114 1.18953165,0.495890353 C0.9198,1.60185723 0.754545413,2.73423727 0.520476606,3.85120964 C0.32458211,4.95158911 0.0134949541,6.07618066 0.195827523,7.20111083 C0.401433028,8.06851259 1.33636881,8.50449923 2.15761881,8.48231894 C3.08267615,8.55529379 3.96068532,8.18212309 4.72032064,7.68111942 C4.54250872,8.53768501 4.36888257,9.53088796 3.58748119,10.0474686 C2.76991468,10.6192461 1.74289174,10.4062475 0.821183028,10.3476645 C0.332618807,10.6480296 0.123664679,11.8134261 0.877774771,11.8908032 C2.10906376,12.1246275 3.48702248,12.091611 4.57616239,11.3984346 C5.65776789,10.678845 6.14449037,9.3742714 6.4393367,8.15570992 C6.94899725,5.88417722 7.34095367,3.58623135 7.80909128,1.30606358 C7.87238028,0.978269352 7.9411945,0.644887727 7.91825642,0.31049021" id="Fill-29"></path>
                        </g>
                    </g>
                </g>
            </g>
        </g>
    </g>
</svg>